<svg width="74" height="73" viewBox="0 0 74 73" fill="none" xmlns="http://www.w3.org/2000/svg">
<path d="M36.6102 0C29.3694 -8.50666e-08 22.2912 2.11534 16.2707 6.07852C10.2501 10.0417 5.55772 15.6747 2.78678 22.2652C0.0158474 28.8558 -0.709157 36.1078 0.703453 43.1043C2.11606 50.1007 5.60284 56.5274 10.7229 61.5716C15.8429 66.6157 22.3662 70.0509 29.4679 71.4426C36.5695 72.8342 43.9306 72.12 50.6203 69.3901C57.3099 66.6602 63.0276 62.0373 67.0504 56.106C71.0732 50.1747 73.2203 43.2013 73.2203 36.0678L54.9153 36.0678C54.9153 39.6346 53.8417 43.1212 51.8303 46.0869C49.8189 49.0526 46.96 51.364 43.6152 52.7289C40.2704 54.0939 36.5899 54.451 33.039 53.7552C29.4882 53.0593 26.2265 51.3418 23.6665 48.8197C21.1065 46.2976 19.3631 43.0843 18.6568 39.586C17.9505 36.0878 18.313 32.4618 19.6985 29.1665C21.0839 25.8713 23.4302 23.0547 26.4404 21.0732C29.4507 19.0916 32.9898 18.0339 36.6102 18.0339V0Z" fill="white"/>
<path d="M36.6102 0C31.8025 -5.64821e-08 27.0418 0.932921 22.6001 2.7455C18.1583 4.55807 14.1224 7.21481 10.7229 10.564C7.3233 13.9132 4.62661 17.8893 2.78678 22.2653C0.946949 26.6412 -7.25945e-07 31.3313 0 36.0678H18.3051C18.3051 33.6996 18.7786 31.3545 19.6985 29.1665C20.6184 26.9785 21.9667 24.9905 23.6665 23.3159C25.3663 21.6413 27.3842 20.3129 29.6051 19.4066C31.826 18.5004 34.2063 18.0339 36.6102 18.0339V0Z" fill="#EC5C5C"/>
<ellipse cx="36.6102" cy="36.0678" rx="11.4407" ry="11.2712" fill="#EC5C5C"/>
<path d="M48.0509 36.0678C48.0509 34.5877 47.7549 33.122 47.18 31.7545C46.605 30.387 45.7623 29.1445 44.7 28.0979C43.6376 27.0513 42.3764 26.221 40.9883 25.6546C39.6003 25.0882 38.1126 24.7966 36.6102 24.7966C35.1078 24.7966 33.6201 25.0882 32.232 25.6546C30.844 26.221 29.5828 27.0513 28.5204 28.0979C27.458 29.1445 26.6153 30.387 26.0404 31.7545C25.4654 33.122 25.1695 34.5877 25.1695 36.0678L36.6102 36.0678H48.0509Z" fill="white"/>
</svg>
