<svg width="270" height="73" viewBox="0 0 270 73" fill="none" xmlns="http://www.w3.org/2000/svg">
<path d="M108.666 29.5845V57.9067H102.986V45.8556H90.8533V57.9067H85.1726V29.5845H90.8533V41.2299H102.986V29.5845H108.666ZM124.239 58.2719C122.075 58.2719 120.128 57.7985 118.396 56.8518C116.665 55.8779 115.299 54.5119 114.298 52.7536C113.324 50.9952 112.837 48.9664 112.837 46.6671C112.837 44.3678 113.338 42.339 114.339 40.5807C115.367 38.8224 116.76 37.4698 118.518 36.523C120.276 35.5492 122.238 35.0623 124.402 35.0623C126.566 35.0623 128.527 35.5492 130.285 36.523C132.044 37.4698 133.423 38.8224 134.424 40.5807C135.452 42.339 135.966 44.3678 135.966 46.6671C135.966 48.9664 135.438 50.9952 134.383 52.7536C133.355 54.5119 131.949 55.8779 130.163 56.8518C128.405 57.7985 126.43 58.2719 124.239 58.2719ZM124.239 53.3216C125.267 53.3216 126.228 53.0782 127.12 52.5912C128.04 52.0773 128.77 51.3199 129.311 50.319C129.852 49.3181 130.123 48.1008 130.123 46.6671C130.123 44.5301 129.555 42.8935 128.419 41.7574C127.31 40.5942 125.944 40.0126 124.32 40.0126C122.697 40.0126 121.331 40.5942 120.222 41.7574C119.14 42.8935 118.599 44.5301 118.599 46.6671C118.599 48.8041 119.127 50.4542 120.182 51.6174C121.264 52.7536 122.616 53.3216 124.239 53.3216ZM150.115 58.2719C147.951 58.2719 146.003 57.7985 144.272 56.8518C142.54 55.8779 141.174 54.5119 140.173 52.7536C139.2 50.9952 138.713 48.9664 138.713 46.6671C138.713 44.3678 139.213 42.339 140.214 40.5807C141.242 38.8224 142.635 37.4698 144.393 36.523C146.152 35.5492 148.113 35.0623 150.277 35.0623C152.441 35.0623 154.402 35.5492 156.16 36.523C157.919 37.4698 159.298 38.8224 160.299 40.5807C161.327 42.339 161.841 44.3678 161.841 46.6671C161.841 48.9664 161.314 50.9952 160.259 52.7536C159.231 54.5119 157.824 55.8779 156.039 56.8518C154.28 57.7985 152.306 58.2719 150.115 58.2719ZM150.115 53.3216C151.143 53.3216 152.103 53.0782 152.996 52.5912C153.915 52.0773 154.646 51.3199 155.187 50.319C155.728 49.3181 155.998 48.1008 155.998 46.6671C155.998 44.5301 155.43 42.8935 154.294 41.7574C153.185 40.5942 151.819 40.0126 150.196 40.0126C148.573 40.0126 147.207 40.5942 146.098 41.7574C145.016 42.8935 144.475 44.5301 144.475 46.6671C144.475 48.8041 145.002 50.4542 146.057 51.6174C147.139 52.7536 148.492 53.3216 150.115 53.3216Z" fill="white"/>
<path d="M182.076 43.3804C183.672 43.678 184.984 44.476 186.012 45.7744C187.04 47.0729 187.554 48.5607 187.554 50.2378C187.554 51.7527 187.175 53.0917 186.418 54.2549C185.688 55.391 184.619 56.2837 183.213 56.9329C181.806 57.5821 180.142 57.9067 178.222 57.9067H166.008V29.5845H177.694C179.615 29.5845 181.265 29.8956 182.644 30.5178C184.051 31.1399 185.106 32.0056 185.809 33.1146C186.54 34.2237 186.905 35.4816 186.905 36.8882C186.905 38.5383 186.459 39.9179 185.566 41.027C184.7 42.1361 183.537 42.9206 182.076 43.3804ZM171.689 41.2705H176.883C178.235 41.2705 179.277 40.9729 180.007 40.3778C180.737 39.7556 181.103 38.8765 181.103 37.7403C181.103 36.6042 180.737 35.725 180.007 35.1029C179.277 34.4807 178.235 34.1696 176.883 34.1696H171.689V41.2705ZM177.41 53.281C178.79 53.281 179.858 52.9564 180.616 52.3072C181.4 51.658 181.792 50.7383 181.792 49.548C181.792 48.3307 181.387 47.384 180.575 46.7077C179.764 46.0044 178.668 45.6527 177.288 45.6527H171.689V53.281H177.41ZM190.621 46.586C190.621 44.3137 191.067 42.2984 191.96 40.5401C192.88 38.7818 194.11 37.4292 195.652 36.4825C197.221 35.5357 198.966 35.0623 200.887 35.0623C202.564 35.0623 204.025 35.4004 205.269 36.0767C206.54 36.753 207.555 37.6051 208.312 38.633V35.4275H214.033V57.9067H208.312V54.6201C207.582 55.675 206.567 56.5542 205.269 57.2575C203.997 57.9338 202.523 58.2719 200.846 58.2719C198.953 58.2719 197.221 57.785 195.652 56.8112C194.11 55.8373 192.88 54.4713 191.96 52.713C191.067 50.9276 190.621 48.8853 190.621 46.586ZM208.312 46.6671C208.312 45.2875 208.042 44.1108 207.501 43.137C206.96 42.1361 206.229 41.3787 205.309 40.8647C204.39 40.3237 203.402 40.0532 202.347 40.0532C201.292 40.0532 200.319 40.3102 199.426 40.8241C198.533 41.3381 197.803 42.0955 197.235 43.0964C196.694 44.0702 196.423 45.2334 196.423 46.586C196.423 47.9385 196.694 49.1287 197.235 50.1567C197.803 51.1576 198.533 51.9285 199.426 52.4695C200.346 53.0105 201.319 53.281 202.347 53.281C203.402 53.281 204.39 53.0241 205.309 52.5101C206.229 51.9691 206.96 51.2117 207.501 50.2378C208.042 49.2369 208.312 48.0467 208.312 46.6671ZM232.038 35.1029C234.716 35.1029 236.881 35.955 238.531 37.6592C240.181 39.3363 241.006 41.6898 241.006 44.7194V57.9067H235.325V45.4904C235.325 43.705 234.879 42.339 233.986 41.3922C233.093 40.4184 231.876 39.9314 230.334 39.9314C228.765 39.9314 227.521 40.4184 226.601 41.3922C225.709 42.339 225.262 43.705 225.262 45.4904V57.9067H219.582V35.4275H225.262V38.2272C226.02 37.2534 226.98 36.496 228.143 35.955C229.333 35.3869 230.632 35.1029 232.038 35.1029ZM259.717 57.9067L252.089 48.3307V57.9067H246.408V27.8803H252.089V44.9629L259.636 35.4275H267.021L257.12 46.7077L267.102 57.9067H259.717Z" fill="#EC5C5C"/>
<path d="M36.6102 0C29.3694 -8.50666e-08 22.2912 2.11534 16.2707 6.07852C10.2501 10.0417 5.55772 15.6747 2.78678 22.2652C0.0158474 28.8558 -0.709157 36.1078 0.703453 43.1043C2.11606 50.1007 5.60284 56.5274 10.7229 61.5716C15.8429 66.6157 22.3662 70.0509 29.4679 71.4426C36.5695 72.8342 43.9306 72.12 50.6203 69.3901C57.3099 66.6602 63.0276 62.0373 67.0504 56.106C71.0732 50.1747 73.2203 43.2013 73.2203 36.0678L54.9153 36.0678C54.9153 39.6346 53.8417 43.1212 51.8303 46.0869C49.8189 49.0526 46.96 51.364 43.6152 52.7289C40.2704 54.0939 36.5899 54.451 33.039 53.7552C29.4882 53.0593 26.2265 51.3418 23.6665 48.8197C21.1065 46.2976 19.3631 43.0843 18.6568 39.586C17.9505 36.0878 18.313 32.4618 19.6985 29.1665C21.0839 25.8713 23.4302 23.0547 26.4404 21.0732C29.4507 19.0916 32.9898 18.0339 36.6102 18.0339L36.6102 0Z" fill="white"/>
<path d="M36.6102 0C31.8025 -5.64821e-08 27.0418 0.932921 22.6001 2.7455C18.1583 4.55807 14.1224 7.21481 10.7229 10.564C7.3233 13.9132 4.62661 17.8893 2.78678 22.2653C0.946949 26.6412 -7.25945e-07 31.3313 0 36.0678L18.3051 36.0678C18.3051 33.6996 18.7786 31.3545 19.6985 29.1665C20.6184 26.9785 21.9667 24.9905 23.6665 23.3159C25.3663 21.6413 27.3842 20.3129 29.6051 19.4066C31.826 18.5004 34.2063 18.0339 36.6102 18.0339L36.6102 0Z" fill="#EC5C5C"/>
<ellipse cx="36.6102" cy="36.0678" rx="11.4407" ry="11.2712" fill="#EC5C5C"/>
<path d="M48.0509 36.0678C48.0509 34.5877 47.7549 33.122 47.18 31.7545C46.605 30.387 45.7623 29.1445 44.7 28.0979C43.6376 27.0513 42.3764 26.221 40.9883 25.6546C39.6003 25.0882 38.1126 24.7966 36.6102 24.7966C35.1078 24.7966 33.6201 25.0882 32.232 25.6546C30.844 26.221 29.5828 27.0513 28.5204 28.0979C27.458 29.1445 26.6153 30.387 26.0404 31.7545C25.4654 33.122 25.1695 34.5877 25.1695 36.0678L36.6102 36.0678H48.0509Z" fill="white"/>
</svg>
